<svg width="27" height="23" viewBox="0 0 27 23" fill="none" xmlns="http://www.w3.org/2000/svg">
<path d="M3 20.125V2.125C3 1.50368 3.50368 1 4.125 1H10.2539C10.6405 1 11 1.19846 11.2059 1.52559L12.669 3.84941C12.875 4.17654 13.2346 4.375 13.6211 4.375H24.375C24.9963 4.375 25.5 4.87868 25.5 5.5V20.125C25.5 20.7463 24.9963 21.25 24.375 21.25H4.125C3.50368 21.25 3 20.7463 3 20.125Z" fill="#2B2F33" stroke="#2B2F33" stroke-width="1.2"/>
<path d="M1 21.125V3.125C1 2.50368 1.50368 2 2.125 2H8.25391C8.64047 2 8.99996 2.19846 9.20593 2.52559L10.669 4.84941C10.875 5.17654 11.2346 5.375 11.6211 5.375H22.375C22.9963 5.375 23.5 5.87868 23.5 6.5V21.125C23.5 21.7463 22.9963 22.25 22.375 22.25H2.125C1.50368 22.25 1 21.7463 1 21.125Z" fill="#F9BC73" stroke="#2B2F33" stroke-width="1.2"/>
<path d="M12 13.25V17.75" stroke="#2B2F33" stroke-width="1.2" stroke-linecap="round"/>
<path d="M12 10.75C12.5523 10.75 13 10.3023 13 9.75C13 9.19772 12.5523 8.75 12 8.75C11.4477 8.75 11 9.19772 11 9.75C11 10.3023 11.4477 10.75 12 10.75Z" fill="#2B2F33"/>
</svg>
