<svg width="26" height="24" viewBox="0 0 26 24" fill="none" xmlns="http://www.w3.org/2000/svg">
<mask id="path-1-inside-1_6_60" fill="white">
<path fill-rule="evenodd" clip-rule="evenodd" d="M20 6.5C20 6.67698 19.9916 6.852 19.9753 7.0247C20.148 7.00836 20.323 7 20.5 7C23.5376 7 26 9.46243 26 12.5C26 15.5376 23.5376 18 20.5 18C20.323 18 20.148 17.9916 19.9753 17.9753C19.9916 18.148 20 18.323 20 18.5C20 21.5376 17.5376 24 14.5 24C11.4624 24 9 21.5376 9 18.5C9 18.323 9.00836 18.148 9.0247 17.9753C8.852 17.9916 8.67698 18 8.5 18C5.46243 18 3 15.5376 3 12.5C3 9.46243 5.46243 7 8.5 7C8.67698 7 8.852 7.00836 9.0247 7.0247C9.00836 6.852 9 6.67698 9 6.5C9 3.46243 11.4624 1 14.5 1C17.5376 1 20 3.46243 20 6.5Z"/>
</mask>
<path fill-rule="evenodd" clip-rule="evenodd" d="M20 6.5C20 6.67698 19.9916 6.852 19.9753 7.0247C20.148 7.00836 20.323 7 20.5 7C23.5376 7 26 9.46243 26 12.5C26 15.5376 23.5376 18 20.5 18C20.323 18 20.148 17.9916 19.9753 17.9753C19.9916 18.148 20 18.323 20 18.5C20 21.5376 17.5376 24 14.5 24C11.4624 24 9 21.5376 9 18.5C9 18.323 9.00836 18.148 9.0247 17.9753C8.852 17.9916 8.67698 18 8.5 18C5.46243 18 3 15.5376 3 12.5C3 9.46243 5.46243 7 8.5 7C8.67698 7 8.852 7.00836 9.0247 7.0247C9.00836 6.852 9 6.67698 9 6.5C9 3.46243 11.4624 1 14.5 1C17.5376 1 20 3.46243 20 6.5Z" fill="#F9BC73"/>
<path d="M19.9753 7.0247L18.7806 6.91164L18.6439 8.35607L20.0884 8.21937L19.9753 7.0247ZM19.9753 17.9753L20.0884 16.7806L18.6439 16.6439L18.7806 18.0884L19.9753 17.9753ZM9.0247 17.9753L10.2194 18.0884L10.3561 16.6439L8.91164 16.7806L9.0247 17.9753ZM9.0247 7.0247L8.91164 8.21937L10.3561 8.35607L10.2194 6.91164L9.0247 7.0247ZM21.17 7.13777C21.1899 6.92754 21.2 6.71479 21.2 6.5H18.8C18.8 6.63917 18.7934 6.77646 18.7806 6.91164L21.17 7.13777ZM20.5 5.8C20.2852 5.8 20.0725 5.81015 19.8622 5.83004L20.0884 8.21937C20.2235 8.20657 20.3608 8.2 20.5 8.2V5.8ZM27.2 12.5C27.2 8.79969 24.2003 5.8 20.5 5.8V8.2C22.8748 8.2 24.8 10.1252 24.8 12.5H27.2ZM20.5 19.2C24.2003 19.2 27.2 16.2003 27.2 12.5H24.8C24.8 14.8748 22.8748 16.8 20.5 16.8V19.2ZM19.8622 19.17C20.0725 19.1899 20.2852 19.2 20.5 19.2V16.8C20.3608 16.8 20.2235 16.7934 20.0884 16.7806L19.8622 19.17ZM18.7806 18.0884C18.7934 18.2235 18.8 18.3608 18.8 18.5H21.2C21.2 18.2852 21.1899 18.0724 21.17 17.8622L18.7806 18.0884ZM18.8 18.5C18.8 20.8748 16.8748 22.8 14.5 22.8V25.2C18.2003 25.2 21.2 22.2003 21.2 18.5H18.8ZM14.5 22.8C12.1252 22.8 10.2 20.8748 10.2 18.5H7.8C7.8 22.2003 10.7997 25.2 14.5 25.2V22.8ZM10.2 18.5C10.2 18.3608 10.2066 18.2235 10.2194 18.0884L7.83004 17.8622C7.81015 18.0725 7.8 18.2852 7.8 18.5H10.2ZM8.5 19.2C8.71479 19.2 8.92754 19.1899 9.13777 19.17L8.91164 16.7806C8.77646 16.7934 8.63917 16.8 8.5 16.8V19.2ZM1.8 12.5C1.8 16.2003 4.79969 19.2 8.5 19.2V16.8C6.12518 16.8 4.2 14.8748 4.2 12.5H1.8ZM8.5 5.8C4.79969 5.8 1.8 8.79969 1.8 12.5H4.2C4.2 10.1252 6.12518 8.2 8.5 8.2V5.8ZM9.13777 5.83004C8.92755 5.81015 8.71479 5.8 8.5 5.8V8.2C8.63916 8.2 8.77646 8.20657 8.91164 8.21937L9.13777 5.83004ZM7.8 6.5C7.8 6.71479 7.81015 6.92754 7.83004 7.13777L10.2194 6.91164C10.2066 6.77647 10.2 6.63917 10.2 6.5H7.8ZM14.5 -0.2C10.7997 -0.2 7.8 2.79969 7.8 6.5H10.2C10.2 4.12518 12.1252 2.2 14.5 2.2V-0.2ZM21.2 6.5C21.2 2.79969 18.2003 -0.2 14.5 -0.2V2.2C16.8748 2.2 18.8 4.12518 18.8 6.5H21.2Z" fill="#2B2F33" mask="url(#path-1-inside-1_6_60)"/>
<mask id="path-3-inside-2_6_60" fill="white">
<path fill-rule="evenodd" clip-rule="evenodd" d="M17 5.5C17 5.67698 16.9916 5.852 16.9753 6.0247C17.148 6.00836 17.323 6 17.5 6C20.5376 6 23 8.46243 23 11.5C23 14.5376 20.5376 17 17.5 17C17.323 17 17.148 16.9916 16.9753 16.9753C16.9916 17.148 17 17.323 17 17.5C17 20.5376 14.5376 23 11.5 23C8.46243 23 6 20.5376 6 17.5C6 17.323 6.00836 17.148 6.0247 16.9753C5.852 16.9916 5.67698 17 5.5 17C2.46243 17 0 14.5376 0 11.5C0 8.46243 2.46243 6 5.5 6C5.67698 6 5.852 6.00836 6.0247 6.0247C6.00836 5.852 6 5.67698 6 5.5C6 2.46243 8.46243 0 11.5 0C14.5376 0 17 2.46243 17 5.5Z"/>
</mask>
<path fill-rule="evenodd" clip-rule="evenodd" d="M17 5.5C17 5.67698 16.9916 5.852 16.9753 6.0247C17.148 6.00836 17.323 6 17.5 6C20.5376 6 23 8.46243 23 11.5C23 14.5376 20.5376 17 17.5 17C17.323 17 17.148 16.9916 16.9753 16.9753C16.9916 17.148 17 17.323 17 17.5C17 20.5376 14.5376 23 11.5 23C8.46243 23 6 20.5376 6 17.5C6 17.323 6.00836 17.148 6.0247 16.9753C5.852 16.9916 5.67698 17 5.5 17C2.46243 17 0 14.5376 0 11.5C0 8.46243 2.46243 6 5.5 6C5.67698 6 5.852 6.00836 6.0247 6.0247C6.00836 5.852 6 5.67698 6 5.5C6 2.46243 8.46243 0 11.5 0C14.5376 0 17 2.46243 17 5.5Z" fill="#B699CB"/>
<path d="M16.9753 6.0247L15.7806 5.91164L15.6439 7.35607L17.0884 7.21937L16.9753 6.0247ZM16.9753 16.9753L17.0884 15.7806L15.6439 15.6439L15.7806 17.0884L16.9753 16.9753ZM6.0247 16.9753L7.21937 17.0884L7.35607 15.6439L5.91164 15.7806L6.0247 16.9753ZM6.0247 6.0247L5.91164 7.21937L7.35607 7.35607L7.21937 5.91164L6.0247 6.0247ZM18.17 6.13777C18.1899 5.92754 18.2 5.71479 18.2 5.5H15.8C15.8 5.63917 15.7934 5.77646 15.7806 5.91164L18.17 6.13777ZM17.5 4.8C17.2852 4.8 17.0725 4.81015 16.8622 4.83004L17.0884 7.21937C17.2235 7.20657 17.3608 7.2 17.5 7.2V4.8ZM24.2 11.5C24.2 7.79969 21.2003 4.8 17.5 4.8V7.2C19.8748 7.2 21.8 9.12518 21.8 11.5H24.2ZM17.5 18.2C21.2003 18.2 24.2 15.2003 24.2 11.5H21.8C21.8 13.8748 19.8748 15.8 17.5 15.8V18.2ZM16.8622 18.17C17.0725 18.1899 17.2852 18.2 17.5 18.2V15.8C17.3608 15.8 17.2235 15.7934 17.0884 15.7806L16.8622 18.17ZM15.7806 17.0884C15.7934 17.2235 15.8 17.3608 15.8 17.5H18.2C18.2 17.2852 18.1899 17.0724 18.17 16.8622L15.7806 17.0884ZM15.8 17.5C15.8 19.8748 13.8748 21.8 11.5 21.8V24.2C15.2003 24.2 18.2 21.2003 18.2 17.5H15.8ZM11.5 21.8C9.12518 21.8 7.2 19.8748 7.2 17.5H4.8C4.8 21.2003 7.79969 24.2 11.5 24.2V21.8ZM7.2 17.5C7.2 17.3608 7.20657 17.2235 7.21937 17.0884L4.83004 16.8622C4.81015 17.0725 4.8 17.2852 4.8 17.5H7.2ZM5.5 18.2C5.71479 18.2 5.92754 18.1899 6.13777 18.17L5.91164 15.7806C5.77646 15.7934 5.63917 15.8 5.5 15.8V18.2ZM-1.2 11.5C-1.2 15.2003 1.79969 18.2 5.5 18.2V15.8C3.12518 15.8 1.2 13.8748 1.2 11.5H-1.2ZM5.5 4.8C1.79969 4.8 -1.2 7.79969 -1.2 11.5H1.2C1.2 9.12518 3.12518 7.2 5.5 7.2V4.8ZM6.13777 4.83004C5.92755 4.81015 5.71479 4.8 5.5 4.8V7.2C5.63916 7.2 5.77646 7.20657 5.91164 7.21937L6.13777 4.83004ZM4.8 5.5C4.8 5.71479 4.81015 5.92754 4.83004 6.13777L7.21937 5.91164C7.20657 5.77647 7.2 5.63917 7.2 5.5H4.8ZM11.5 -1.2C7.79969 -1.2 4.8 1.79969 4.8 5.5H7.2C7.2 3.12518 9.12518 1.2 11.5 1.2V-1.2ZM18.2 5.5C18.2 1.79969 15.2003 -1.2 11.5 -1.2V1.2C13.8748 1.2 15.8 3.12518 15.8 5.5H18.2Z" fill="#2B2F33" mask="url(#path-3-inside-2_6_60)"/>
</svg>
