<svg width="26" height="26" viewBox="0 0 26 26" fill="none" xmlns="http://www.w3.org/2000/svg">
<g clip-path="url(#clip0_8_197)">
<path d="M17.1264 2.16493C16.7282 2 16.2235 2 15.2139 2C14.2043 2 13.6996 2 13.3014 2.16493C12.7705 2.38483 12.3487 2.80663 12.1288 3.33752C12.0284 3.57987 11.9891 3.86171 11.9738 4.27282C11.9512 4.87699 11.6414 5.43621 11.1178 5.73851C10.5942 6.04079 9.95496 6.0295 9.42044 5.74699C9.05673 5.55474 8.793 5.44784 8.53292 5.4136C7.9632 5.33859 7.38702 5.49298 6.93113 5.8428C6.58921 6.10516 6.33682 6.54231 5.83205 7.41659C5.32729 8.29088 5.0749 8.72802 5.01864 9.15532C4.94365 9.72503 5.09803 10.3012 5.44785 10.7571C5.60751 10.9652 5.83191 11.1401 6.18019 11.3589C6.69219 11.6807 7.02162 12.2287 7.02159 12.8333C7.02155 13.4379 6.69213 13.9859 6.18018 14.3075C5.83186 14.5265 5.60743 14.7014 5.44774 14.9095C5.09792 15.3654 4.94354 15.9415 5.01855 16.5112C5.07479 16.9385 5.32718 17.3757 5.83195 18.25C6.33672 19.1242 6.58911 19.5615 6.93102 19.8238C7.38691 20.1736 7.96309 20.3279 8.53281 20.253C8.79287 20.2187 9.05658 20.1118 9.42028 19.9196C9.95483 19.6371 10.5941 19.6258 11.1177 19.9281C11.6413 20.2304 11.9512 20.7897 11.9738 21.3939C11.9892 21.805 12.0284 22.0868 12.1288 22.3292C12.3487 22.86 12.7705 23.2819 13.3014 23.5018C13.6996 23.6667 14.2043 23.6667 15.2139 23.6667C16.2235 23.6667 16.7282 23.6667 17.1264 23.5018C17.6573 23.2819 18.0791 22.86 18.2989 22.3292C18.3993 22.0868 18.4387 21.805 18.454 21.3938C18.4766 20.7897 18.7864 20.2304 19.31 19.9281C19.8336 19.6257 20.4728 19.6371 21.0075 19.9196C21.3711 20.1118 21.6348 20.2186 21.8948 20.2529C22.4645 20.3279 23.0408 20.1736 23.4966 19.8238C23.8385 19.5614 24.091 19.1242 24.5957 18.2499C25.1005 17.3756 25.3529 16.9385 25.4092 16.5112C25.4841 15.9415 25.3297 15.3653 24.9799 14.9094C24.8203 14.7013 24.5958 14.5264 24.2475 14.3075C23.7356 13.9859 23.4062 13.4378 23.4062 12.8332C23.4062 12.2286 23.7356 11.6808 24.2475 11.3591C24.5959 11.1402 24.8204 10.9653 24.98 10.7571C25.3299 10.3013 25.4842 9.72511 25.4093 9.15538C25.353 8.7281 25.1006 8.29095 24.5958 7.41667C24.0911 6.54238 23.8386 6.10524 23.4967 5.84288C23.0409 5.49306 22.4647 5.33867 21.8949 5.41368C21.6349 5.44791 21.3712 5.55481 21.0075 5.74703C20.4729 6.02956 19.8337 6.04085 19.3101 5.73854C18.7864 5.43624 18.4766 4.87696 18.454 4.27277C18.4387 3.86169 18.3993 3.57986 18.2989 3.33752C18.0791 2.80663 17.6573 2.38483 17.1264 2.16493Z" fill="#2B2F33" stroke="#2B2F33" stroke-width="1.2"/>
<path d="M14.9125 2.33158C14.5143 2.16666 14.0096 2.16666 13 2.16666C11.9904 2.16666 11.4857 2.16666 11.0875 2.33158C10.5566 2.55149 10.1348 2.97328 9.91492 3.50417C9.81454 3.74652 9.77525 4.02836 9.75988 4.43948C9.73729 5.04364 9.42745 5.60287 8.90386 5.90516C8.38028 6.20745 7.74106 6.19616 7.20655 5.91365C6.84283 5.7214 6.5791 5.61449 6.31903 5.58026C5.7493 5.50525 5.17312 5.65964 4.71723 6.00946C4.37531 6.27182 4.12292 6.70896 3.61816 7.58325C3.11339 8.45754 2.861 8.89468 2.80475 9.32198C2.72975 9.89169 2.88413 10.4679 3.23395 10.9238C3.39361 11.1319 3.61802 11.3067 3.9663 11.5256C4.47829 11.8473 4.80772 12.3954 4.80769 13C4.80766 13.6046 4.47824 14.1525 3.96629 14.4742C3.61796 14.6931 3.39353 14.8681 3.23384 15.0762C2.88402 15.5321 2.72964 16.1082 2.80465 16.6779C2.8609 17.1052 3.11328 17.5424 3.61805 18.4167C4.12283 19.2909 4.37521 19.7281 4.71712 19.9904C5.17301 20.3402 5.74919 20.4946 6.31892 20.4196C6.57897 20.3854 6.84269 20.2785 7.20638 20.0863C7.74093 19.8038 8.3802 19.7925 8.90381 20.0947C9.42743 20.3971 9.73729 20.9563 9.75988 21.5606C9.77526 21.9716 9.81454 22.2535 9.91492 22.4958C10.1348 23.0267 10.5566 23.4485 11.0875 23.6684C11.4857 23.8333 11.9904 23.8333 13 23.8333C14.0096 23.8333 14.5143 23.8333 14.9125 23.6684C15.4434 23.4485 15.8652 23.0267 16.085 22.4958C16.1854 22.2535 16.2248 21.9716 16.2401 21.5605C16.2627 20.9563 16.5725 20.3971 17.0961 20.0947C17.6197 19.7924 18.2589 19.8038 18.7936 20.0863C19.1572 20.2785 19.4209 20.3853 19.6809 20.4195C20.2506 20.4946 20.8269 20.3402 21.2827 19.9904C21.6246 19.728 21.8771 19.2909 22.3818 18.4165C22.8866 17.5423 23.139 17.1052 23.1953 16.6779C23.2702 16.1082 23.1158 15.532 22.766 15.0761C22.6064 14.868 22.3819 14.693 22.0336 14.4742C21.5217 14.1525 21.1923 13.6045 21.1923 12.9999C21.1923 12.3953 21.5217 11.8474 22.0336 11.5258C22.382 11.3068 22.6065 11.132 22.7661 10.9238C23.116 10.4679 23.2703 9.89177 23.1954 9.32204C23.1391 8.89475 22.8867 8.45761 22.3819 7.58332C21.8772 6.70904 21.6247 6.27189 21.2828 6.00953C20.827 5.65971 20.2508 5.50533 19.681 5.58034C19.421 5.61457 19.1573 5.72146 18.7936 5.91369C18.259 6.19621 17.6198 6.20751 17.0962 5.9052C16.5725 5.60289 16.2627 5.04362 16.2401 4.43942C16.2248 4.02834 16.1854 3.74651 16.085 3.50417C15.8652 2.97328 15.4434 2.55149 14.9125 2.33158Z" fill="#F9BC73" stroke="#2B2F33" stroke-width="1.2"/>
<path d="M13 16.25C14.7949 16.25 16.25 14.7949 16.25 13C16.25 11.2051 14.7949 9.75 13 9.75C11.2051 9.75 9.75 11.2051 9.75 13C9.75 14.7949 11.2051 16.25 13 16.25Z" fill="#2B2F33" stroke="#2B2F33" stroke-width="1.2"/>
</g>
<defs>
<clipPath id="clip0_8_197">
<rect width="26" height="26" fill="white"/>
</clipPath>
</defs>
</svg>
