<svg width="27" height="23" viewBox="0 0 27 23" fill="none" xmlns="http://www.w3.org/2000/svg">
<path d="M15.9167 21.6667V19.0833C15.9167 15.5165 13.0251 12.625 9.45833 12.625C5.8915 12.625 3 15.5165 3 19.0833V21.6667H15.9167ZM15.9167 21.6667H26.25V20.375C26.25 16.5704 23.3585 13.9167 19.7917 13.9167C17.9662 13.9167 16.3175 14.7246 15.1428 16.0235M13.3333 4.875C13.3333 7.0151 11.5984 8.75 9.45833 8.75C7.31824 8.75 5.58333 7.0151 5.58333 4.875C5.58333 2.7349 7.31824 1 9.45833 1C11.5984 1 13.3333 2.7349 13.3333 4.875ZM22.375 7.45833C22.375 8.88511 21.2184 10.0417 19.7917 10.0417C18.3649 10.0417 17.2083 8.88511 17.2083 7.45833C17.2083 6.0316 18.3649 4.875 19.7917 4.875C21.2184 4.875 22.375 6.0316 22.375 7.45833Z" fill="#2B2F33"/>
<path d="M15.9167 21.6667V19.0833C15.9167 15.5165 13.0251 12.625 9.45833 12.625C5.8915 12.625 3 15.5165 3 19.0833V21.6667H15.9167ZM15.9167 21.6667H26.25V20.375C26.25 16.5704 23.3585 13.9167 19.7917 13.9167C17.9662 13.9167 16.3175 14.7246 15.1428 16.0235M13.3333 4.875C13.3333 7.0151 11.5984 8.75 9.45833 8.75C7.31824 8.75 5.58333 7.0151 5.58333 4.875C5.58333 2.7349 7.31824 1 9.45833 1C11.5984 1 13.3333 2.7349 13.3333 4.875ZM22.375 7.45833C22.375 8.88511 21.2184 10.0417 19.7917 10.0417C18.3649 10.0417 17.2083 8.88511 17.2083 7.45833C17.2083 6.0316 18.3649 4.875 19.7917 4.875C21.2184 4.875 22.375 6.0316 22.375 7.45833Z" stroke="#2B2F33" stroke-width="1.2" stroke-linecap="round" stroke-linejoin="round"/>
<path d="M13.9167 21.6667V19.0833C13.9167 15.5165 11.0251 12.625 7.45833 12.625C3.8915 12.625 1 15.5165 1 19.0833V21.6667H13.9167ZM13.9167 21.6667H24.25V20.375C24.25 16.5704 21.3585 13.9167 17.7917 13.9167C15.9662 13.9167 14.3175 14.7246 13.1428 16.0235M11.3333 4.875C11.3333 7.0151 9.59843 8.75 7.45833 8.75C5.31824 8.75 3.58333 7.0151 3.58333 4.875C3.58333 2.7349 5.31824 1 7.45833 1C9.59843 1 11.3333 2.7349 11.3333 4.875ZM20.375 7.45833C20.375 8.88511 19.2184 10.0417 17.7917 10.0417C16.3649 10.0417 15.2083 8.88511 15.2083 7.45833C15.2083 6.0316 16.3649 4.875 17.7917 4.875C19.2184 4.875 20.375 6.0316 20.375 7.45833Z" fill="#F9BC73"/>
<path d="M13.9167 21.6667V19.0833C13.9167 15.5165 11.0251 12.625 7.45833 12.625C3.8915 12.625 1 15.5165 1 19.0833V21.6667H13.9167ZM13.9167 21.6667H24.25V20.375C24.25 16.5704 21.3585 13.9167 17.7917 13.9167C15.9662 13.9167 14.3175 14.7246 13.1428 16.0235M11.3333 4.875C11.3333 7.0151 9.59843 8.75 7.45833 8.75C5.31824 8.75 3.58333 7.0151 3.58333 4.875C3.58333 2.7349 5.31824 1 7.45833 1C9.59843 1 11.3333 2.7349 11.3333 4.875ZM20.375 7.45833C20.375 8.88511 19.2184 10.0417 17.7917 10.0417C16.3649 10.0417 15.2083 8.88511 15.2083 7.45833C15.2083 6.0316 16.3649 4.875 17.7917 4.875C19.2184 4.875 20.375 6.0316 20.375 7.45833Z" stroke="#2B2F33" stroke-width="1.2" stroke-linecap="round" stroke-linejoin="round"/>
</svg>
